Coordinates
version=1
nRows=11
nColumns=63
inDegrees=yes

Units are S.I. units (second, meters, Newtons, ...)
If the header above contains a line with 'inDegrees', this indicates whether rotational values are in degrees (yes) or radians (no).

endheader
time	pelvis_tilt	pelvis_list	pelvis_rotation	pelvis_tx	pelvis_ty	pelvis_tz	hip_flexion_r	hip_adduction_r	hip_rotation_r	knee_angle_r	knee_angle_r_beta	ankle_angle_r	subtalar_angle_r	mtp_angle_r	hip_flexion_l	hip_adduction_l	hip_rotation_l	knee_angle_l	knee_angle_l_beta	ankle_angle_l	subtalar_angle_l	mtp_angle_l	L5_S1_Flex_Ext	L5_S1_Lat_Bending	L5_S1_axial_rotation	L4_L5_Flex_Ext	L4_L5_Lat_Bending	L4_L5_axial_rotation	L3_L4_Flex_Ext	L3_L4_Lat_Bending	L3_L4_axial_rotation	L2_L3_Flex_Ext	L2_L3_Lat_Bending	L2_L3_axial_rotation	L1_L2_Flex_Ext	L1_L2_Lat_Bending	L1_L2_axial_rotation	L1_T12_Flex_Ext	L1_T12_Lat_Bending	L1_T12_axial_rotation	Abs_r3	Abs_r2	Abs_r1	Abs_t1	Abs_t2	neck_flexion	neck_bending	neck_rotation	arm_flex_r	arm_add_r	arm_rot_r	elbow_flex_r	pro_sup_r	wrist_flex_r	wrist_dev_r	arm_flex_l	arm_add_l	arm_rot_l	elbow_flex_l	pro_sup_l	wrist_flex_l	wrist_dev_l
      0.00000000	     -1.30583966	     -4.01464496	     89.27576090	      0.19051565	      0.99175726	      0.39426096	     -0.68888380	     -2.76949760	    -12.02719500	      9.29387078	      0.16220865	     23.14413220	      4.10191904	      0.00000000	     -3.86272620	      0.37333891	     -7.56693680	      1.29940647	      0.02267892	     25.80944949	     11.55544057	      0.00000000	      0.00917319	      0.21205468	     -0.21056952	      0.01703553	      0.28203272	     -0.22373011	      0.01507064	      0.51558974	     -0.22373011	      0.01048404	      0.51558974	     -0.18424833	      0.00851823	      0.43242190	     -0.17108773	      0.00524156	      0.32847270	     -0.15792714	      0.06552319	      2.39880492	     -1.17112448	      0.00000000	      0.00000000	     17.29193015	     -0.39199028	      8.77564399	     -5.59279437	    -21.39087824	     -0.60159088	     58.28665699	     86.47516376	     -9.82619324	     13.33130215	     -7.81551000	    -16.01443268	     -1.32754983	     54.96735535	     89.03528209	    -21.54005999	      5.40514235
      0.01851852	     -0.99324433	     -4.58364208	     90.30535019	      0.19065285	      0.98994880	      0.39828990	     -0.40797055	     -2.28562314	    -13.45718614	      8.87381919	      0.15487736	     21.87865167	      4.23901720	      0.00000000	     -3.17044184	     -0.12710490	     -6.91643774	      1.25077122	      0.02183008	     24.50117546	     11.20619951	      0.00000000	      0.01307964	      0.21785772	     -0.39492773	      0.02429019	      0.28975077	     -0.41961071	      0.02148853	      0.52969926	     -0.41961071	      0.01494872	      0.52969926	     -0.34556176	      0.01214575	      0.44425546	     -0.32087878	      0.00747370	      0.33746161	     -0.29619579	      0.09342654	      2.46445010	     -2.19646953	      0.00000000	      0.00000000	     18.31230113	     -0.49831472	      7.23862190	     -4.80749405	    -21.16583031	      5.38077728	     61.19903151	     88.44267661	     -9.01825470	     11.89272012	     -6.39159560	    -16.19326910	      5.23837977	     58.66329181	     89.18694243	    -19.61734748	      2.78928456
      0.03703704	     -0.78451310	     -4.93757677	     92.22039221	      0.18940947	      0.98869893	      0.40170009	     -0.53435165	     -2.23351506	    -20.13678692	      8.45024700	      0.14748463	     21.77287267	     10.14273445	      0.00000000	     -2.62174811	     -0.44349263	     -0.48041291	      1.03164848	      0.01800566	     22.74842837	      4.58571450	      0.00000000	      0.01515801	      0.20507656	     -0.75632128	      0.02814994	      0.27275183	     -0.80359136	      0.02490309	      0.49862316	     -0.80359136	      0.01732409	      0.49862316	     -0.66178112	      0.01407573	      0.41819213	     -0.61451104	      0.00866129	      0.31766360	     -0.56724096	      0.10827213	      2.31986710	     -4.20643207	      0.00000000	      0.00000000	     18.90089640	     -0.49283328	      5.55267750	     -3.02090782	    -21.25093478	     12.60488536	     62.84781376	     88.86208994	     -9.84977433	     10.60637505	     -4.48315321	    -16.18076931	     10.91345858	     60.88873533	     89.26556078	    -20.11784231	     -1.53244047
      0.05555556	     -0.67862214	     -5.27714175	     93.60080798	      0.18920235	      0.98762651	      0.40470765	     -0.49407778	     -1.94823836	    -21.70009315	      7.96638378	      0.13903963	     21.18657799	      9.73420654	      0.00000000	     -2.01916425	     -0.68606977	      0.87450332	      0.93347097	      0.01629214	     22.33450590	      4.40637377	      0.00000000	      0.02937672	      0.18058012	     -1.02806498	      0.05455551	      0.24017155	     -1.09231904	      0.04826302	      0.43906250	     -1.09231904	      0.03357466	      0.43906250	     -0.89955686	      0.02727923	      0.36823897	     -0.83530280	      0.01678586	      0.27971860	     -0.77104873	      0.20983500	      2.04275839	     -5.71778900	      0.00000000	      0.00000000	     19.39563697	     -0.14689484	      4.65522540	     -0.82638928	    -20.95707434	     18.66442052	     64.20926455	     88.93129249	     -7.91013941	     12.31748897	     -2.78299489	    -15.81759632	     14.38656639	     63.07706494	     89.33950945	    -18.63155984	     -3.27920153
      0.07407407	     -0.55525271	     -5.59812589	     94.90619808	      0.18883852	      0.98677084	      0.40724107	     -0.39902122	     -1.76661959	    -24.13865563	      7.63184981	      0.13320091	     21.04496797	     10.69203445	      0.00000000	     -1.41056447	     -0.88318157	      3.54449795	      0.83641284	      0.01459816	     22.01780568	      2.38369995	      0.00000000	      0.05489076	      0.16987514	     -1.29279568	      0.10193763	      0.22593393	     -1.37359541	      0.09018003	      0.41303441	     -1.37359541	      0.06273465	      0.41303441	     -1.13119622	      0.05097156	      0.34640938	     -1.05039649	      0.03136458	      0.26313659	     -0.96959676	      0.39207919	      1.92166155	     -7.19014175	      0.00000000	      0.00000000	     19.76971052	      0.46739065	      4.95323656	      1.38945706	    -20.39890518	     23.75455630	     65.40442588	     88.65783188	     -4.97458105	     15.07424376	     -1.47588615	    -15.07872335	     16.34657944	     65.21377387	     89.37566196	    -15.96460606	     -3.15931324
      0.09259259	     -0.43619181	     -5.83195027	     96.18584993	      0.18830612	      0.98622728	      0.40916638	     -0.39011362	     -1.51239705	    -25.42974280	      7.21495183	      0.12592466	     20.91398485	     10.09896886	      0.00000000	     -0.88373858	     -1.05970722	      4.66871181	      0.75099416	      0.01310732	     22.31186946	      2.67507604	      0.00000000	      0.08152180	      0.16152193	     -1.51180485	      0.15139413	      0.21482417	     -1.60629266	      0.13393216	      0.39272443	     -1.60629266	      0.09317126	      0.39272443	     -1.32282925	      0.07570114	      0.32937553	     -1.22834144	      0.04658156	      0.25019748	     -1.13385364	      0.58230206	      1.82716843	     -8.40820506	      0.00000000	      0.00000000	     20.03034214	      0.70583823	      4.79959205	      3.28322709	    -19.72328890	     28.15550890	     66.57665696	     87.17865893	     -2.71072328	     17.68637920	     -0.41835971	    -14.18558113	     17.87209284	     67.22458665	     89.36599518	    -13.60759470	     -2.18392640
      0.11111111	     -0.21089907	     -6.10619429	     97.26773777	      0.18758891	      0.98573870	      0.41070885	     -0.24582907	     -1.22785472	    -26.63143904	      6.89233707	      0.12029398	     20.91638667	     10.06542351	      0.00000000	     -0.32005447	     -1.29334068	      5.64619498	      0.70374636	      0.01228269	     22.70409960	      2.83777500	      0.00000000	      0.11583201	      0.17681077	     -1.74699516	      0.21511162	      0.23515832	     -1.85618235	      0.19030040	      0.42989770	     -1.85618235	      0.13238440	      0.42989770	     -1.52862076	      0.10756160	      0.36055252	     -1.41943357	      0.06618641	      0.27387988	     -1.31024637	      0.82737644	      2.00011876	     -9.71626297	      0.00000000	      0.00000000	     20.31334400	      1.27090324	      5.74287778	      5.45802406	    -19.49238457	     33.55620030	     67.69013782	     79.56399482	     -1.18645300	     18.86645697	     -0.06532581	    -13.05753342	     18.17300540	     69.81051050	     89.28059264	     -9.15419703	      1.73815230
      0.12962963	      0.10653830	     -6.25919696	     98.24303392	      0.18649917	      0.98553152	      0.41194844	     -0.17380904	     -0.86339200	    -27.59503588	      6.60879007	      0.11534515	     21.00592868	      9.87976353	      0.00000000	      0.10347970	     -1.59717038	      6.31364163	      0.68899250	      0.01202519	     23.13584056	      3.26759503	      0.00000000	      0.14056190	      0.20949634	     -1.96695511	      0.26103750	      0.27863014	     -2.08988980	      0.23092914	      0.50936941	     -2.08988980	      0.16064819	      0.50936941	     -1.72108572	      0.13052578	      0.42720494	     -1.59815102	      0.08031707	      0.32450984	     -1.47521633	      1.00401957	      2.36986453	    -10.93961421	      0.00000000	      0.00000000	     20.41399994	      1.59154554	      6.48396893	      8.13233106	    -19.98182410	     40.50354947	     68.95482791	     65.84491320	     -0.54603683	     18.63018246	      0.06037728	    -12.03724276	     19.04827814	     72.33699763	     89.08587387	     -5.97894166	      5.26312678
      0.14814815	      0.47526170	     -6.33535545	     99.11302895	      0.18531832	      0.98551250	      0.41289854	     -0.13428105	     -0.45244506	    -28.30553631	      6.36178253	      0.11103405	     21.06902598	      9.67732829	      0.00000000	      0.42222517	     -1.95171326	      6.87278654	      0.70515364	      0.01230725	     23.45335379	      3.67736883	      0.00000000	      0.15902523	      0.25355474	     -2.14388013	      0.29532576	      0.33722781	     -2.27787264	      0.26126256	      0.61649300	     -2.27787264	      0.18174994	      0.61649300	     -1.87589512	      0.14767083	      0.51704883	     -1.74190261	      0.09086702	      0.39275629	     -1.60791010	      1.13590134	      2.86826195	    -11.92361814	      0.00000000	      0.00000000	     20.44282539	      1.70663148	      7.10611723	     10.58749964	    -20.71481330	     46.92693063	     71.04458721	     54.79964363	     -0.61689706	     17.08923540	      0.00219122	    -11.39297538	     20.80527143	     74.97764691	     88.71840673	     -3.78293126	      8.35006235
      0.16666667	      0.84817056	     -6.33957469	     99.89864962	      0.18414588	      0.98555852	      0.41352037	     -0.14471787	     -0.02223799	    -28.75559911	      6.12338374	      0.10687321	     21.15803360	      9.50078608	      0.00000000	      0.62876389	     -2.31348891	      7.51708163	      0.74445667	      0.01299322	     23.57553319	      3.80650125	      0.00000000	      0.17061319	      0.29909845	     -2.26089896	      0.31684576	      0.39780094	     -2.40220515	      0.28030041	      0.72722797	     -2.40220515	      0.19499382	      0.72722797	     -1.97828659	      0.15843141	      0.60992155	     -1.83698041	      0.09748838	      0.46330350	     -1.69567422	      1.21867296	      3.38346146	    -12.57444176	      0.00000000	      0.00000000	     20.51769684	      1.68044856	      7.33876522	     12.10958675	    -21.49492808	     50.98121060	     74.09816871	     47.80874226	     -0.95657453	     15.58694747	     -0.09828720	    -11.17559613	     23.22206723	     77.76316194	     87.94400448	     -1.87741657	     11.36791200
      0.18518519	      1.14779567	     -6.27600667	    100.60481712	      0.18327766	      0.98565270	      0.41382988	     -0.20539359	      0.35872185	    -28.92978193	      5.91906262	      0.10330713	     21.30638659	      9.29053564	      0.00000000	      0.72229821	     -2.63104002	      8.21401119	      0.81371014	      0.01420192	     23.47475420	      3.77257653	      0.00000000	      0.17415663	      0.32839074	     -2.32797124	      0.32342629	      0.43675969	     -2.47346944	      0.28612193	      0.79844925	     -2.47346944	      0.19904362	      0.79844925	     -2.03697483	      0.16172185	      0.66965440	     -1.89147663	      0.09951310	      0.50867726	     -1.74597843	      1.24398342	      3.71482174	    -12.94747764	      0.00000000	      0.00000000	     20.67680276	      1.65950792	      6.85190144	     12.35620546	    -22.18840479	     52.00608191	     77.70310748	     44.29609911	     -1.02375165	     15.15705609	     -0.06624957	    -11.35980615	     25.84044794	     80.62857138	     85.77861636	     -0.12824362	     14.69011027
